<svg xmlns="http://www.w3.org/2000/svg" style="display: none;">

    <symbol id="header-icon" viewBox="0 0 42 30" fill="none" xmlns="http://www.w3.org/2000/svg">
        <path d="M41 25.5H0.5" stroke="white" stroke-linecap="round" />
        <path d="M31 29.5H1" stroke="white" stroke-linecap="round" />
        <path fill-rule="evenodd" clip-rule="evenodd"
            d="M29.1633 1.26893L28.5 0C28.3616 0.467337 28.2241 0.923333 28.0871 1.36877C26.6769 5.95537 25.3239 9.42232 23.5856 12.622L19.2769 5.15908L18.6077 4C18.4657 4.43397 18.3248 4.85599 18.1845 5.26699C15.8394 12.1356 13.6519 15.9269 9.12277 21C8.8303 21.3276 8.52806 21.6605 8.21539 22H9.56886H17H18.2981H27.8453H29H38.8716H40L39.4773 21L29.1633 1.26893ZM27.2679 21H19.1083C20.8866 18.7736 22.3389 16.7314 23.5913 14.6319L27.2679 21ZM24.1695 13.6333L28.4226 21H38.3489L28.7431 2.62361C27.3404 7.05074 25.9574 10.4492 24.1695 13.6333ZM23.0166 13.6364C21.6099 16.0657 19.9466 18.3902 17.8239 21H10.4563C12.4517 18.7097 13.999 16.6257 15.3185 14.3417C16.6606 12.0187 17.7524 9.51391 18.8457 6.41227L23.0166 13.6364Z"
            fill="white" />
    </symbol>
    <symbol id="arrow-icon" viewBox="0 0 11 8" fill="none" xmlns="http://www.w3.org/2000/svg">
<path d="M4.28239 0.407941C4.68199 -0.135876 5.49446 -0.135876 5.89406 0.407941L9.98049 5.96914C10.4658 6.62956 9.99419 7.56128 9.17465 7.56128H1.0018C0.182261 7.56128 -0.289315 6.62956 0.195966 5.96914L4.28239 0.407941Z" fill="white"/>
</symbol>

</svg>